<?xml version="1.0" standalone="no"?>
<!DOCTYPE svg PUBLIC "-//W3C//DTD SVG 1.1//EN" "http://www.w3.org/Graphics/SVG/1.1/DTD/svg11.dtd">
<svg width="76mm" height="76mm" viewBox="-38 -38 76 76" xmlns="http://www.w3.org/2000/svg" version="1.1">
<title>OpenSCAD Model</title>
<path d="
M 0.37674,37.9882 L 0.751999,37.9527 L 1.12428,37.8937 L 1.49213,37.8115 L 1.8541,37.7063 L 2.20874,37.5786
 L 2.55467,37.429 L 2.89052,37.2578 L 3.21495,37.066 L 3.5267,36.8541 L 3.82454,36.6231 L 4.10727,36.3738
 L 4.37381,36.1073 L 4.62308,35.8245 L 4.8541,35.5267 L 5.06596,35.215 L 5.25783,34.8905 L 5.42896,34.5547
 L 5.57864,34.2087 L 5.70633,33.8541 L 5.81149,33.4921 L 5.89372,33.1243 L 5.95268,32.752 L 5.98816,32.3767
 L 6,32 L 5.98816,31.6232 L 5.95268,31.248 L 5.91341,31 L 6,31 L 6,26.3115
 L 6.71461,26.1517 L 8.34344,25.6785 L 9.93936,25.104 L 11.496,24.4303 L 13.0073,23.6603 L 14.4673,22.7968
 L 15.8702,21.8434 L 17.2104,20.8038 L 18.4828,19.6821 L 19.6821,18.4828 L 20.8038,17.2104 L 21.8434,15.8702
 L 22.7968,14.4673 L 23.6603,13.0073 L 24.4303,11.496 L 25.104,9.93936 L 25.6785,8.34344 L 26.1517,6.71461
 L 26.3115,6 L 31,6 L 31,5.91341 L 31.248,5.95268 L 31.6232,5.98816 L 32,6
 L 32.3767,5.98816 L 32.752,5.95268 L 33.1243,5.89372 L 33.4921,5.81149 L 33.8541,5.70633 L 34.2087,5.57864
 L 34.5547,5.42896 L 34.8905,5.25783 L 35.215,5.06596 L 35.5267,4.8541 L 35.8245,4.62308 L 36.1073,4.37381
 L 36.3738,4.10727 L 36.6231,3.82454 L 36.8541,3.5267 L 37.066,3.21495 L 37.2578,2.89052 L 37.429,2.55467
 L 37.5786,2.20874 L 37.7063,1.8541 L 37.8115,1.49213 L 37.8937,1.12428 L 37.9527,0.751999 L 37.9882,0.37674
 L 38,-0 L 37.9882,-0.37674 L 37.9527,-0.751999 L 37.8937,-1.12428 L 37.8115,-1.49213 L 37.7063,-1.8541
 L 37.5786,-2.20874 L 37.429,-2.55467 L 37.2578,-2.89052 L 37.066,-3.21495 L 36.8541,-3.5267 L 36.6231,-3.82454
 L 36.3738,-4.10727 L 36.1073,-4.37381 L 35.8245,-4.62308 L 35.5267,-4.8541 L 35.215,-5.06596 L 34.8905,-5.25783
 L 34.5547,-5.42896 L 34.2087,-5.57864 L 33.8541,-5.70633 L 33.4921,-5.81149 L 33.1243,-5.89372 L 32.752,-5.95268
 L 32.3767,-5.98816 L 32,-6 L 31.6232,-5.98816 L 31.248,-5.95268 L 31,-5.91341 L 31,-6
 L 26.3115,-6 L 26.1517,-6.71461 L 25.6785,-8.34344 L 25.104,-9.93936 L 24.4303,-11.496 L 23.6603,-13.0073
 L 22.7968,-14.4673 L 21.8434,-15.8702 L 20.8038,-17.2104 L 19.6821,-18.4828 L 18.4828,-19.6821 L 17.2104,-20.8038
 L 15.8702,-21.8434 L 14.4673,-22.7968 L 13.0073,-23.6603 L 11.496,-24.4303 L 9.93936,-25.104 L 8.34344,-25.6785
 L 6.71461,-26.1517 L 6,-26.3115 L 6,-31 L 5.91341,-31 L 5.95268,-31.248 L 5.98816,-31.6232
 L 6,-32 L 5.98816,-32.3767 L 5.95268,-32.752 L 5.89372,-33.1243 L 5.81149,-33.4921 L 5.70633,-33.8541
 L 5.57864,-34.2087 L 5.42896,-34.5547 L 5.25783,-34.8905 L 5.06596,-35.215 L 4.8541,-35.5267 L 4.62308,-35.8245
 L 4.37381,-36.1073 L 4.10727,-36.3738 L 3.82454,-36.6231 L 3.5267,-36.8541 L 3.21495,-37.066 L 2.89052,-37.2578
 L 2.55467,-37.429 L 2.20874,-37.5786 L 1.8541,-37.7063 L 1.49213,-37.8115 L 1.12428,-37.8937 L 0.751999,-37.9527
 L 0.37674,-37.9882 L 0,-38 L -0.37674,-37.9882 L -0.751999,-37.9527 L -1.12428,-37.8937 L -1.49213,-37.8115
 L -1.8541,-37.7063 L -2.20874,-37.5786 L -2.55467,-37.429 L -2.89052,-37.2578 L -3.21495,-37.066 L -3.5267,-36.8541
 L -3.82454,-36.6231 L -4.10727,-36.3738 L -4.37381,-36.1073 L -4.62308,-35.8245 L -4.8541,-35.5267 L -5.06596,-35.215
 L -5.25783,-34.8905 L -5.42896,-34.5547 L -5.57864,-34.2087 L -5.70633,-33.8541 L -5.81149,-33.4921 L -5.89372,-33.1243
 L -5.95268,-32.752 L -5.98816,-32.3767 L -6,-32 L -5.98816,-31.6232 L -5.95268,-31.248 L -5.91341,-31
 L -6,-31 L -6,-26.3115 L -6.71461,-26.1517 L -8.34344,-25.6785 L -9.93936,-25.104 L -11.496,-24.4303
 L -13.0073,-23.6603 L -14.4673,-22.7968 L -15.8702,-21.8434 L -17.2104,-20.8038 L -18.4828,-19.6821 L -19.6821,-18.4828
 L -20.8038,-17.2104 L -21.8434,-15.8702 L -22.7968,-14.4673 L -23.6603,-13.0073 L -24.4303,-11.496 L -25.104,-9.93936
 L -25.6785,-8.34344 L -26.1517,-6.71461 L -26.3115,-6 L -31,-6 L -31,-5.91341 L -31.248,-5.95268
 L -31.6232,-5.98816 L -32,-6 L -32.3767,-5.98816 L -32.752,-5.95268 L -33.1243,-5.89372 L -33.4921,-5.81149
 L -33.8541,-5.70633 L -34.2087,-5.57864 L -34.5547,-5.42896 L -34.8905,-5.25783 L -35.215,-5.06596 L -35.5267,-4.8541
 L -35.8245,-4.62308 L -36.1073,-4.37381 L -36.3738,-4.10727 L -36.6231,-3.82454 L -36.8541,-3.5267 L -37.066,-3.21495
 L -37.2578,-2.89052 L -37.429,-2.55467 L -37.5786,-2.20874 L -37.7063,-1.8541 L -37.8115,-1.49213 L -37.8937,-1.12428
 L -37.9527,-0.751999 L -37.9882,-0.37674 L -38,-0 L -37.9882,0.37674 L -37.9527,0.751999 L -37.8937,1.12428
 L -37.8115,1.49213 L -37.7063,1.8541 L -37.5786,2.20874 L -37.429,2.55467 L -37.2578,2.89052 L -37.066,3.21495
 L -36.8541,3.5267 L -36.6231,3.82454 L -36.3738,4.10727 L -36.1073,4.37381 L -35.8245,4.62308 L -35.5267,4.8541
 L -35.215,5.06596 L -34.8905,5.25783 L -34.5547,5.42896 L -34.2087,5.57864 L -33.8541,5.70633 L -33.4921,5.81149
 L -33.1243,5.89372 L -32.752,5.95268 L -32.3767,5.98816 L -32,6 L -31.6232,5.98816 L -31.248,5.95268
 L -31,5.91341 L -31,6 L -26.3115,6 L -26.1517,6.71461 L -25.6785,8.34344 L -25.104,9.93936
 L -24.4303,11.496 L -23.6603,13.0073 L -22.7968,14.4673 L -21.8434,15.8702 L -20.8038,17.2104 L -19.6821,18.4828
 L -18.4828,19.6821 L -17.2104,20.8038 L -15.8702,21.8434 L -14.4673,22.7968 L -13.0073,23.6603 L -11.496,24.4303
 L -9.93936,25.104 L -8.34344,25.6785 L -6.71461,26.1517 L -6,26.3115 L -6,31 L -5.91341,31
 L -5.95268,31.248 L -5.98816,31.6232 L -6,32 L -5.98816,32.3767 L -5.95268,32.752 L -5.89372,33.1243
 L -5.81149,33.4921 L -5.70633,33.8541 L -5.57864,34.2087 L -5.42896,34.5547 L -5.25783,34.8905 L -5.06596,35.215
 L -4.8541,35.5267 L -4.62308,35.8245 L -4.37381,36.1073 L -4.10727,36.3738 L -3.82454,36.6231 L -3.5267,36.8541
 L -3.21495,37.066 L -2.89052,37.2578 L -2.55467,37.429 L -2.20874,37.5786 L -1.8541,37.7063 L -1.49213,37.8115
 L -1.12428,37.8937 L -0.751999,37.9527 L -0.37674,37.9882 L 0,38 z
M -0.106735,-31.3033 L -0.213058,-31.3134 L -0.318542,-31.3301 L -0.42276,-31.3534 L -0.525314,-31.3832 L -0.625809,-31.4194
 L -0.723816,-31.4618 L -0.81897,-31.5103 L -0.910904,-31.5646 L -0.999222,-31.6247 L -1.08362,-31.6901 L -1.16373,-31.7607
 L -1.23924,-31.8363 L -1.30986,-31.9164 L -1.37532,-32.0008 L -1.43535,-32.0891 L -1.48972,-32.181 L -1.53819,-32.2762
 L -1.58061,-32.3742 L -1.61679,-32.4747 L -1.64659,-32.5772 L -1.66988,-32.6814 L -1.68658,-32.7869 L -1.69664,-32.8932
 L -1.7,-33 L -1.69664,-33.1067 L -1.68658,-33.2131 L -1.66988,-33.3185 L -1.64659,-33.4228 L -1.61679,-33.5253
 L -1.58061,-33.6258 L -1.53819,-33.7238 L -1.48972,-33.819 L -1.43535,-33.9109 L -1.37532,-33.9992 L -1.30986,-34.0836
 L -1.23924,-34.1637 L -1.16373,-34.2392 L -1.08362,-34.3099 L -0.999222,-34.3753 L -0.910904,-34.4353 L -0.81897,-34.4897
 L -0.723816,-34.5382 L -0.625809,-34.5806 L -0.525314,-34.6168 L -0.42276,-34.6466 L -0.318542,-34.6699 L -0.213058,-34.6866
 L -0.106735,-34.6966 L 0,-34.7 L 0.106735,-34.6966 L 0.213058,-34.6866 L 0.318542,-34.6699 L 0.42276,-34.6466
 L 0.525314,-34.6168 L 0.625809,-34.5806 L 0.723816,-34.5382 L 0.81897,-34.4897 L 0.910904,-34.4353 L 0.999222,-34.3753
 L 1.08362,-34.3099 L 1.16373,-34.2392 L 1.23924,-34.1637 L 1.30986,-34.0836 L 1.37532,-33.9992 L 1.43535,-33.9109
 L 1.48972,-33.819 L 1.53819,-33.7238 L 1.58061,-33.6258 L 1.61679,-33.5253 L 1.64659,-33.4228 L 1.66988,-33.3185
 L 1.68658,-33.2131 L 1.69664,-33.1067 L 1.7,-33 L 1.69664,-32.8932 L 1.68658,-32.7869 L 1.66988,-32.6814
 L 1.64659,-32.5772 L 1.61679,-32.4747 L 1.58061,-32.3742 L 1.53819,-32.2762 L 1.48972,-32.181 L 1.43535,-32.0891
 L 1.37532,-32.0008 L 1.30986,-31.9164 L 1.23924,-31.8363 L 1.16373,-31.7607 L 1.08362,-31.6901 L 0.999222,-31.6247
 L 0.910904,-31.5646 L 0.81897,-31.5103 L 0.723816,-31.4618 L 0.625809,-31.4194 L 0.525314,-31.3832 L 0.42276,-31.3534
 L 0.318542,-31.3301 L 0.213058,-31.3134 L 0.106735,-31.3033 L 0,-31.3 z
M 32.8932,1.69664 L 32.7869,1.68658 L 32.6814,1.66988 L 32.5772,1.64659 L 32.4747,1.61679 L 32.3742,1.58061
 L 32.2762,1.53819 L 32.181,1.48972 L 32.0891,1.43535 L 32.0008,1.37532 L 31.9164,1.30986 L 31.8363,1.23924
 L 31.7607,1.16373 L 31.6901,1.08362 L 31.6247,0.999222 L 31.5646,0.910904 L 31.5103,0.81897 L 31.4618,0.723816
 L 31.4194,0.625809 L 31.3832,0.525314 L 31.3534,0.42276 L 31.3301,0.318542 L 31.3134,0.213058 L 31.3033,0.106735
 L 31.3,-0 L 31.3033,-0.106735 L 31.3134,-0.213058 L 31.3301,-0.318542 L 31.3534,-0.42276 L 31.3832,-0.525314
 L 31.4194,-0.625809 L 31.4618,-0.723816 L 31.5103,-0.81897 L 31.5646,-0.910904 L 31.6247,-0.999222 L 31.6901,-1.08362
 L 31.7607,-1.16373 L 31.8363,-1.23924 L 31.9164,-1.30986 L 32.0008,-1.37532 L 32.0891,-1.43535 L 32.181,-1.48972
 L 32.2762,-1.53819 L 32.3742,-1.58061 L 32.4747,-1.61679 L 32.5772,-1.64659 L 32.6814,-1.66988 L 32.7869,-1.68658
 L 32.8932,-1.69664 L 33,-1.7 L 33.1067,-1.69664 L 33.2131,-1.68658 L 33.3185,-1.66988 L 33.4228,-1.64659
 L 33.5253,-1.61679 L 33.6258,-1.58061 L 33.7238,-1.53819 L 33.819,-1.48972 L 33.9109,-1.43535 L 33.9992,-1.37532
 L 34.0836,-1.30986 L 34.1637,-1.23924 L 34.2392,-1.16373 L 34.3099,-1.08362 L 34.3753,-0.999222 L 34.4353,-0.910904
 L 34.4897,-0.81897 L 34.5382,-0.723816 L 34.5806,-0.625809 L 34.6168,-0.525314 L 34.6466,-0.42276 L 34.6699,-0.318542
 L 34.6866,-0.213058 L 34.6966,-0.106735 L 34.7,-0 L 34.6966,0.106735 L 34.6866,0.213058 L 34.6699,0.318542
 L 34.6466,0.42276 L 34.6168,0.525314 L 34.5806,0.625809 L 34.5382,0.723816 L 34.4897,0.81897 L 34.4353,0.910904
 L 34.3753,0.999222 L 34.3099,1.08362 L 34.2392,1.16373 L 34.1637,1.23924 L 34.0836,1.30986 L 33.9992,1.37532
 L 33.9109,1.43535 L 33.819,1.48972 L 33.7238,1.53819 L 33.6258,1.58061 L 33.5253,1.61679 L 33.4228,1.64659
 L 33.3185,1.66988 L 33.2131,1.68658 L 33.1067,1.69664 L 33,1.7 z
M -33.1067,1.69664 L -33.2131,1.68658 L -33.3185,1.66988 L -33.4228,1.64659 L -33.5253,1.61679 L -33.6258,1.58061
 L -33.7238,1.53819 L -33.819,1.48972 L -33.9109,1.43535 L -33.9992,1.37532 L -34.0836,1.30986 L -34.1637,1.23924
 L -34.2392,1.16373 L -34.3099,1.08362 L -34.3753,0.999222 L -34.4353,0.910904 L -34.4897,0.81897 L -34.5382,0.723816
 L -34.5806,0.625809 L -34.6168,0.525314 L -34.6466,0.42276 L -34.6699,0.318542 L -34.6866,0.213058 L -34.6966,0.106735
 L -34.7,-0 L -34.6966,-0.106735 L -34.6866,-0.213058 L -34.6699,-0.318542 L -34.6466,-0.42276 L -34.6168,-0.525314
 L -34.5806,-0.625809 L -34.5382,-0.723816 L -34.4897,-0.81897 L -34.4353,-0.910904 L -34.3753,-0.999222 L -34.3099,-1.08362
 L -34.2392,-1.16373 L -34.1637,-1.23924 L -34.0836,-1.30986 L -33.9992,-1.37532 L -33.9109,-1.43535 L -33.819,-1.48972
 L -33.7238,-1.53819 L -33.6258,-1.58061 L -33.5253,-1.61679 L -33.4228,-1.64659 L -33.3185,-1.66988 L -33.2131,-1.68658
 L -33.1067,-1.69664 L -33,-1.7 L -32.8932,-1.69664 L -32.7869,-1.68658 L -32.6814,-1.66988 L -32.5772,-1.64659
 L -32.4747,-1.61679 L -32.3742,-1.58061 L -32.2762,-1.53819 L -32.181,-1.48972 L -32.0891,-1.43535 L -32.0008,-1.37532
 L -31.9164,-1.30986 L -31.8363,-1.23924 L -31.7607,-1.16373 L -31.6901,-1.08362 L -31.6247,-0.999222 L -31.5646,-0.910904
 L -31.5103,-0.81897 L -31.4618,-0.723816 L -31.4194,-0.625809 L -31.3832,-0.525314 L -31.3534,-0.42276 L -31.3301,-0.318542
 L -31.3134,-0.213058 L -31.3033,-0.106735 L -31.3,-0 L -31.3033,0.106735 L -31.3134,0.213058 L -31.3301,0.318542
 L -31.3534,0.42276 L -31.3832,0.525314 L -31.4194,0.625809 L -31.4618,0.723816 L -31.5103,0.81897 L -31.5646,0.910904
 L -31.6247,0.999222 L -31.6901,1.08362 L -31.7607,1.16373 L -31.8363,1.23924 L -31.9164,1.30986 L -32.0008,1.37532
 L -32.0891,1.43535 L -32.181,1.48972 L -32.2762,1.53819 L -32.3742,1.58061 L -32.4747,1.61679 L -32.5772,1.64659
 L -32.6814,1.66988 L -32.7869,1.68658 L -32.8932,1.69664 L -33,1.7 z
M -0.106735,34.6966 L -0.213058,34.6866 L -0.318542,34.6699 L -0.42276,34.6466 L -0.525314,34.6168 L -0.625809,34.5806
 L -0.723816,34.5382 L -0.81897,34.4897 L -0.910904,34.4353 L -0.999222,34.3753 L -1.08362,34.3099 L -1.16373,34.2392
 L -1.23924,34.1637 L -1.30986,34.0836 L -1.37532,33.9992 L -1.43535,33.9109 L -1.48972,33.819 L -1.53819,33.7238
 L -1.58061,33.6258 L -1.61679,33.5253 L -1.64659,33.4228 L -1.66988,33.3185 L -1.68658,33.2131 L -1.69664,33.1067
 L -1.7,33 L -1.69664,32.8932 L -1.68658,32.7869 L -1.66988,32.6814 L -1.64659,32.5772 L -1.61679,32.4747
 L -1.58061,32.3742 L -1.53819,32.2762 L -1.48972,32.181 L -1.43535,32.0891 L -1.37532,32.0008 L -1.30986,31.9164
 L -1.23924,31.8363 L -1.16373,31.7607 L -1.08362,31.6901 L -0.999222,31.6247 L -0.910904,31.5646 L -0.81897,31.5103
 L -0.723816,31.4618 L -0.625809,31.4194 L -0.525314,31.3832 L -0.42276,31.3534 L -0.318542,31.3301 L -0.213058,31.3134
 L -0.106735,31.3033 L 0,31.3 L 0.106735,31.3033 L 0.213058,31.3134 L 0.318542,31.3301 L 0.42276,31.3534
 L 0.525314,31.3832 L 0.625809,31.4194 L 0.723816,31.4618 L 0.81897,31.5103 L 0.910904,31.5646 L 0.999222,31.6247
 L 1.08362,31.6901 L 1.16373,31.7607 L 1.23924,31.8363 L 1.30986,31.9164 L 1.37532,32.0008 L 1.43535,32.0891
 L 1.48972,32.181 L 1.53819,32.2762 L 1.58061,32.3742 L 1.61679,32.4747 L 1.64659,32.5772 L 1.66988,32.6814
 L 1.68658,32.7869 L 1.69664,32.8932 L 1.7,33 L 1.69664,33.1067 L 1.68658,33.2131 L 1.66988,33.3185
 L 1.64659,33.4228 L 1.61679,33.5253 L 1.58061,33.6258 L 1.53819,33.7238 L 1.48972,33.819 L 1.43535,33.9109
 L 1.37532,33.9992 L 1.30986,34.0836 L 1.23924,34.1637 L 1.16373,34.2392 L 1.08362,34.3099 L 0.999222,34.3753
 L 0.910904,34.4353 L 0.81897,34.4897 L 0.723816,34.5382 L 0.625809,34.5806 L 0.525314,34.6168 L 0.42276,34.6466
 L 0.318542,34.6699 L 0.213058,34.6866 L 0.106735,34.6966 L 0,34.7 z
" stroke="black" fill="lightgray" stroke-width="0.5"/>
</svg>
