<?xml version="1.0" standalone="no"?>
<!DOCTYPE svg PUBLIC "-//W3C//DTD SVG 1.1//EN" "http://www.w3.org/Graphics/SVG/1.1/DTD/svg11.dtd">
<svg width="303mm" height="324mm" viewBox="-141 -162 303 324" xmlns="http://www.w3.org/2000/svg" version="1.1">
<title>OpenSCAD Model</title>
<path d="
M 10.1564,161.431 L 20.2726,160.475 L 30.3089,158.885 L 40.2256,156.668 L 49.9835,153.833 L 59.5441,150.391
 L 68.8698,146.356 L 77.9236,141.743 L 86.67,136.57 L 95.0743,130.858 L 103.103,124.631 L 110.725,117.911
 L 117.911,110.725 L 124.631,103.103 L 130.858,95.0743 L 136.57,86.67 L 141.743,77.9236 L 146.356,68.8698
 L 150.391,59.5441 L 153.833,49.9835 L 156.668,40.2256 L 158.885,30.3089 L 160.475,20.2726 L 161.431,10.1564
 L 161.75,-0 L 161.431,-10.1564 L 160.475,-20.2726 L 158.885,-30.3089 L 156.668,-40.2256 L 153.833,-49.9835
 L 150.391,-59.5441 L 146.356,-68.8698 L 141.743,-77.9236 L 136.57,-86.67 L 130.858,-95.0743 L 124.631,-103.103
 L 117.911,-110.725 L 110.725,-117.911 L 103.103,-124.631 L 95.0743,-130.858 L 86.67,-136.57 L 77.9236,-141.743
 L 68.8698,-146.356 L 59.5441,-150.391 L 49.9835,-153.833 L 40.2256,-156.668 L 30.3089,-158.885 L 20.2726,-160.475
 L 10.1564,-161.431 L 0,-161.75 L -10.1564,-161.431 L -20.2726,-160.475 L -30.3089,-158.885 L -40.2256,-156.668
 L -49.9835,-153.833 L -59.5441,-150.391 L -68.8698,-146.356 L -77.9236,-141.743 L -86.67,-136.57 L -95.0743,-130.858
 L -103.103,-124.631 L -110.725,-117.911 L -117.911,-110.725 L -124.631,-103.103 L -130.858,-95.0743 L -136.57,-86.67
 L -140.018,-80.8395 L -48.0433,-27.7378 L -46.8602,-29.7384 L -44.9004,-32.6221 L -42.7635,-35.377 L -40.4577,-37.9924
 L -37.9924,-40.4577 L -35.377,-42.7635 L -32.6221,-44.9004 L -29.7384,-46.8602 L -26.7373,-48.635 L -23.6307,-50.2179
 L -20.4309,-51.6026 L -17.1504,-52.7836 L -13.8023,-53.7564 L -10.3997,-54.5169 L -6.95599,-55.0624 L -3.48486,-55.3905
 L 0,-55.5 L 3.48486,-55.3905 L 6.95599,-55.0624 L 10.3997,-54.5169 L 13.8023,-53.7564 L 17.1504,-52.7836
 L 20.4309,-51.6026 L 23.6307,-50.2179 L 26.7373,-48.635 L 29.7384,-46.8602 L 32.6221,-44.9004 L 35.377,-42.7635
 L 37.9924,-40.4577 L 40.4577,-37.9924 L 42.7635,-35.377 L 44.9004,-32.6221 L 46.8602,-29.7384 L 48.635,-26.7373
 L 50.2179,-23.6307 L 51.6026,-20.4309 L 52.7836,-17.1504 L 53.7564,-13.8023 L 54.5169,-10.3997 L 55.0624,-6.95599
 L 55.3905,-3.48486 L 55.5,-0 L 55.3905,3.48486 L 55.0624,6.95599 L 54.5169,10.3997 L 53.7564,13.8023
 L 52.7836,17.1504 L 51.6026,20.4309 L 50.2179,23.6307 L 48.635,26.7373 L 46.8602,29.7384 L 44.9004,32.6221
 L 42.7635,35.377 L 40.4577,37.9924 L 37.9924,40.4577 L 35.377,42.7635 L 32.6221,44.9004 L 29.7384,46.8602
 L 26.7373,48.635 L 23.6307,50.2179 L 20.4309,51.6026 L 17.1504,52.7836 L 13.8023,53.7564 L 10.3997,54.5169
 L 6.95599,55.0624 L 3.48486,55.3905 L 0,55.5 L -3.48486,55.3905 L -6.95599,55.0624 L -10.3997,54.5169
 L -13.8023,53.7564 L -17.1504,52.7836 L -20.4309,51.6026 L -23.6307,50.2179 L -26.7373,48.635 L -29.7384,46.8602
 L -32.6221,44.9004 L -35.377,42.7635 L -37.9924,40.4577 L -40.4577,37.9924 L -42.7635,35.377 L -44.9004,32.6221
 L -46.8602,29.7384 L -48.0433,27.7378 L -140.018,80.8395 L -136.57,86.67 L -130.858,95.0743 L -124.631,103.103
 L -117.911,110.725 L -110.725,117.911 L -103.103,124.631 L -95.0743,130.858 L -86.67,136.57 L -77.9236,141.743
 L -68.8698,146.356 L -59.5441,150.391 L -49.9835,153.833 L -40.2256,156.668 L -30.3089,158.885 L -20.2726,160.475
 L -10.1564,161.431 L 0,161.75 z
" stroke="black" fill="lightgray" stroke-width="0.5"/>
</svg>
