<?xml version="1.0" standalone="no"?>
<!DOCTYPE svg PUBLIC "-//W3C//DTD SVG 1.1//EN" "http://www.w3.org/Graphics/SVG/1.1/DTD/svg11.dtd">
<svg width="114mm" height="162mm" viewBox="-162 -81 114 162" xmlns="http://www.w3.org/2000/svg" version="1.1">
<title>OpenSCAD Model</title>
<path d="
M -48.0433,27.7378 L -48.635,26.7373 L -50.2179,23.6307 L -51.6026,20.4309 L -52.7836,17.1504 L -53.7564,13.8023
 L -54.5169,10.3997 L -55.0624,6.95599 L -55.3905,3.48486 L -55.5,-0 L -55.3905,-3.48486 L -55.0624,-6.95599
 L -54.5169,-10.3997 L -53.7564,-13.8023 L -52.7836,-17.1504 L -51.6026,-20.4309 L -50.2179,-23.6307 L -48.635,-26.7373
 L -48.0433,-27.7378 L -140.018,-80.8395 L -141.743,-77.9236 L -146.356,-68.8698 L -150.391,-59.5441 L -153.833,-49.9835
 L -156.668,-40.2256 L -158.885,-30.3089 L -160.475,-20.2726 L -161.431,-10.1564 L -161.436,-9.98227 L -161.372,-9.98026
 L -160.747,-9.92114 L -160.126,-9.82286 L -159.513,-9.68582 L -158.91,-9.51056 L -158.319,-9.29776 L -157.742,-9.04826
 L -157.182,-8.76306 L -156.642,-8.44327 L -156.122,-8.09016 L -155.626,-7.70512 L -155.155,-7.28967 L -154.71,-6.84546
 L -154.295,-6.37424 L -153.91,-5.87784 L -153.557,-5.35826 L -153.237,-4.81754 L -152.952,-4.25778 L -152.702,-3.68124
 L -152.489,-3.09016 L -152.314,-2.48689 L -152.177,-1.87381 L -152.079,-1.25333 L -152.02,-0.627899 L -152,-0
 L -152.02,0.627899 L -152.079,1.25333 L -152.177,1.87381 L -152.314,2.48689 L -152.489,3.09016 L -152.702,3.68124
 L -152.952,4.25778 L -153.237,4.81754 L -153.557,5.35826 L -153.91,5.87784 L -154.295,6.37424 L -154.71,6.84546
 L -155.155,7.28967 L -155.626,7.70512 L -156.122,8.09016 L -156.642,8.44327 L -157.182,8.76306 L -157.742,9.04826
 L -158.319,9.29776 L -158.91,9.51056 L -159.513,9.68582 L -160.126,9.82286 L -160.747,9.92114 L -161.372,9.98026
 L -161.436,9.98227 L -161.431,10.1564 L -160.475,20.2726 L -158.885,30.3089 L -156.668,40.2256 L -153.833,49.9835
 L -150.391,59.5441 L -146.356,68.8698 L -141.743,77.9236 L -140.018,80.8395 z
" stroke="black" fill="lightgray" stroke-width="0.5"/>
</svg>
